REM DIRINDEX 1\2,1\3,1\4,1\5,1\6
REM DIRNAME folder01,folder02,folder03,folder04,folder05,folder06
TITLE ""
FILE "DISC4Track01.mp3" MP3
  TRACK 01 AUDIO
    TITLE "0:"
    INDEX 01 00:00:00
  TRACK 02 AUDIO
    TITLE "2:cjc129_2935"
    INDEX 01 00:00:07
  TRACK 03 AUDIO
    TITLE "0:"
    INDEX 01 00:01:46
  TRACK 04 AUDIO
    TITLE "2:cjc129_2936"
    INDEX 01 00:05:30
  TRACK 05 AUDIO
    TITLE "0:"
    INDEX 01 00:14:39
  TRACK 06 AUDIO
    TITLE "2:cjc129_2937"
    INDEX 01 00:15:54
  TRACK 07 AUDIO
    TITLE "0:"
    INDEX 01 00:20:61
  TRACK 08 AUDIO
    TITLE "3:cjc129_2938"
    INDEX 01 00:22:01
  TRACK 09 AUDIO
    TITLE "0:"
    INDEX 01 00:23:34
  TRACK 10 AUDIO
    TITLE "5:cjc129_2939"
    INDEX 01 00:23:69
  TRACK 11 AUDIO
    TITLE "0:"
    INDEX 01 00:27:63
  TRACK 12 AUDIO
    TITLE "4:cjc129_2940"
    INDEX 01 00:28:55
  TRACK 13 AUDIO
    TITLE "0:"
    INDEX 01 00:30:14
  TRACK 14 AUDIO
    TITLE "6:cjc129_2941"
    INDEX 01 00:30:48
  TRACK 15 AUDIO
    TITLE "0:"
    INDEX 01 00:35:43
  TRACK 16 AUDIO
    TITLE "3:cjc129_2942"
    INDEX 01 00:37:18
  TRACK 17 AUDIO
    TITLE "0:"
    INDEX 01 00:41:14
  TRACK 18 AUDIO
    TITLE "5:cjc129_2943"
    INDEX 01 00:41:45
  TRACK 19 AUDIO
    TITLE "0:"
    INDEX 01 00:43:19
  TRACK 20 AUDIO
    TITLE "4:cjc129_2944"
    INDEX 01 00:44:11
  TRACK 21 AUDIO
    TITLE "0:"
    INDEX 01 00:48:06
  TRACK 22 AUDIO
    TITLE "6:cjc129_2945"
    INDEX 01 00:48:36
  TRACK 23 AUDIO
    TITLE "0:"
    INDEX 01 00:53:37
  TRACK 24 AUDIO
    TITLE "3:cjc129_2946"
    INDEX 01 00:55:12
  TRACK 25 AUDIO
    TITLE "0:"
    INDEX 01 00:58:58
  TRACK 26 AUDIO
    TITLE "5:cjc129_2947"
    INDEX 01 00:59:14
  TRACK 27 AUDIO
    TITLE "0:"
    INDEX 01 01:00:66
  TRACK 28 AUDIO
    TITLE "4:cjc129_2948"
    INDEX 01 01:01:58
  TRACK 29 AUDIO
    TITLE "0:"
    INDEX 01 01:05:30
  TRACK 30 AUDIO
    TITLE "6:cjc129_2949"
    INDEX 01 01:05:62
  TRACK 31 AUDIO
    TITLE "0:"
    INDEX 01 01:10:45
  TRACK 32 AUDIO
    TITLE "3:cjc129_2950"
    INDEX 01 01:12:21
  TRACK 33 AUDIO
    TITLE "0:"
    INDEX 01 01:13:34
  TRACK 34 AUDIO
    TITLE "5:cjc129_2951"
    INDEX 01 01:13:67
  TRACK 35 AUDIO
    TITLE "0:"
    INDEX 01 01:19:36
  TRACK 36 AUDIO
    TITLE "4:cjc129_2952"
    INDEX 01 01:20:28
  TRACK 37 AUDIO
    TITLE "0:"
    INDEX 01 01:21:43
  TRACK 38 AUDIO
    TITLE "6:cjc129_2953"
    INDEX 01 01:21:74
  TRACK 39 AUDIO
    TITLE "0:"
    INDEX 01 01:26:66
  TRACK 40 AUDIO
    TITLE "3:cjc129_2954"
    INDEX 01 01:28:41
  TRACK 41 AUDIO
    TITLE "0:"
    INDEX 01 01:30:26
  TRACK 42 AUDIO
    TITLE "5:cjc129_2955"
    INDEX 01 01:30:56
  TRACK 43 AUDIO
    TITLE "0:"
    INDEX 01 01:33:07
  TRACK 44 AUDIO
    TITLE "4:cjc129_2956"
    INDEX 01 01:33:74
  TRACK 45 AUDIO
    TITLE "0:"
    INDEX 01 01:35:57
  TRACK 46 AUDIO
    TITLE "6:cjc129_2957"
    INDEX 01 01:36:15
  TRACK 47 AUDIO
    TITLE "0:"
    INDEX 01 01:40:07
  TRACK 48 AUDIO
    TITLE "3:cjc129_2958"
    INDEX 01 01:41:56
  TRACK 49 AUDIO
    TITLE "0:"
    INDEX 01 01:43:19
  TRACK 50 AUDIO
    TITLE "5:cjc129_2959"
    INDEX 01 01:43:52
  TRACK 51 AUDIO
    TITLE "0:"
    INDEX 01 01:45:02
  TRACK 52 AUDIO
    TITLE "4:cjc129_2960"
    INDEX 01 01:45:67
  TRACK 53 AUDIO
    TITLE "0:"
    INDEX 01 01:47:31
  TRACK 54 AUDIO
    TITLE "6:cjc129_2961"
    INDEX 01 01:47:62
  TRACK 55 AUDIO
    TITLE "0:"
    INDEX 01 01:52:49
  TRACK 56 AUDIO
    TITLE "3:cjc129_2962"
    INDEX 01 01:54:23
  TRACK 57 AUDIO
    TITLE "0:"
    INDEX 01 01:55:54
  TRACK 58 AUDIO
    TITLE "5:cjc129_2963"
    INDEX 01 01:56:12
  TRACK 59 AUDIO
    TITLE "0:"
    INDEX 01 02:01:70
  TRACK 60 AUDIO
    TITLE "4:cjc129_2964"
    INDEX 01 02:02:60
  TRACK 61 AUDIO
    TITLE "0:"
    INDEX 01 02:04:17
  TRACK 62 AUDIO
    TITLE "6:cjc129_2965"
    INDEX 01 02:04:49
  TRACK 63 AUDIO
    TITLE "0:"
    INDEX 01 02:08:37
